<?xml version="1.0" encoding="UTF-8" standalone="no"?>
<!-- Created with Inkscape (http://www.inkscape.org/) -->

<svg
   xmlns:dc="http://purl.org/dc/elements/1.1/"
   xmlns:cc="http://creativecommons.org/ns#"
   xmlns:rdf="http://www.w3.org/1999/02/22-rdf-syntax-ns#"
   xmlns:svg="http://www.w3.org/2000/svg"
   xmlns="http://www.w3.org/2000/svg"
   xmlns:sodipodi="http://sodipodi.sourceforge.net/DTD/sodipodi-0.dtd"
   xmlns:inkscape="http://www.inkscape.org/namespaces/inkscape"
   width="210mm"
   height="297mm"
   viewBox="0 0 210 297"
   version="1.1"
   id="svg8"
   inkscape:version="0.92.3 (2405546, 2018-03-11)"
   sodipodi:docname="FreezeBubble.svg">
  <defs
     id="defs2">
    <filter
       id="filter1000"
       style="color-interpolation-filters:sRGB;"
       inkscape:menu-tooltip="Metallized effect with a soft lighting, slightly translucent at the edges"
       inkscape:menu="Materials"
       inkscape:label="Metallized Paint">
      <feGaussianBlur
         id="feGaussianBlur974"
         result="result1"
         stdDeviation="1" />
      <feComposite
         id="feComposite976"
         operator="in"
         result="result4"
         in2="result1"
         in="result1" />
      <feBlend
         id="feBlend978"
         in2="result4"
         result="result5"
         mode="screen"
         in="result1" />
      <feGaussianBlur
         id="feGaussianBlur980"
         in="result5"
         result="result6"
         stdDeviation="8" />
      <feComposite
         id="feComposite982"
         result="result8"
         in2="result5"
         in="result6"
         operator="atop" />
      <feComposite
         id="feComposite984"
         in2="result8"
         in="result6"
         result="fbSourceGraphic"
         operator="in" />
      <feGaussianBlur
         id="feGaussianBlur986"
         stdDeviation="2.5"
         in="fbSourceGraphic"
         result="result0" />
      <feSpecularLighting
         id="feSpecularLighting990"
         in="result0"
         result="result1"
         lighting-color="rgb(255,255,255)"
         surfaceScale="1"
         specularConstant="1.5"
         specularExponent="45">
        <fePointLight
           id="fePointLight988"
           x="-6000"
           y="-9000"
           z="21000" />
      </feSpecularLighting>
      <feComposite
         id="feComposite992"
         in2="fbSourceGraphic"
         in="result1"
         result="result2"
         operator="in" />
      <feComposite
         id="feComposite994"
         in2="result2"
         in="fbSourceGraphic"
         result="result4"
         operator="arithmetic"
         k2="1"
         k3="1" />
      <feComposite
         id="feComposite996"
         result="result91"
         in2="result4"
         in="result9"
         operator="in" />
      <feBlend
         id="feBlend998"
         in2="result91"
         mode="multiply" />
    </filter>
    <filter
       id="filter1000-0"
       style="color-interpolation-filters:sRGB;"
       inkscape:menu-tooltip="Metallized effect with a soft lighting, slightly translucent at the edges"
       inkscape:menu="Materials"
       inkscape:label="Metallized Paint">
      <feGaussianBlur
         id="feGaussianBlur974-0"
         result="result1"
         stdDeviation="1" />
      <feComposite
         id="feComposite976-9"
         operator="in"
         result="result4"
         in2="result1"
         in="result1" />
      <feBlend
         id="feBlend978-1"
         in2="result4"
         result="result5"
         mode="screen"
         in="result1" />
      <feGaussianBlur
         id="feGaussianBlur980-2"
         in="result5"
         result="result6"
         stdDeviation="8" />
      <feComposite
         id="feComposite982-4"
         result="result8"
         in2="result5"
         in="result6"
         operator="atop" />
      <feComposite
         id="feComposite984-7"
         in2="result8"
         in="result6"
         result="fbSourceGraphic"
         operator="in" />
      <feGaussianBlur
         id="feGaussianBlur986-7"
         stdDeviation="2.5"
         in="fbSourceGraphic"
         result="result0" />
      <feSpecularLighting
         id="feSpecularLighting990-6"
         in="result0"
         result="result1"
         lighting-color="rgb(255,255,255)"
         surfaceScale="1"
         specularConstant="1.5"
         specularExponent="45">
        <fePointLight
           id="fePointLight988-6"
           x="-6000"
           y="-9000"
           z="21000" />
      </feSpecularLighting>
      <feComposite
         id="feComposite992-1"
         in2="fbSourceGraphic"
         in="result1"
         result="result2"
         operator="in" />
      <feComposite
         id="feComposite994-6"
         in2="result2"
         in="fbSourceGraphic"
         result="result4"
         operator="arithmetic"
         k2="1"
         k3="1" />
      <feComposite
         id="feComposite996-8"
         result="result91"
         in2="result4"
         in="result9"
         operator="in" />
      <feBlend
         id="feBlend998-5"
         in2="result91"
         mode="multiply" />
    </filter>
  </defs>
  <sodipodi:namedview
     id="base"
     pagecolor="#ffffff"
     bordercolor="#666666"
     borderopacity="1.0"
     inkscape:pageopacity="0.0"
     inkscape:pageshadow="2"
     inkscape:zoom="0.7"
     inkscape:cx="163.60503"
     inkscape:cy="514.32653"
     inkscape:document-units="mm"
     inkscape:current-layer="g867"
     showgrid="false"
     inkscape:window-width="1920"
     inkscape:window-height="1017"
     inkscape:window-x="-8"
     inkscape:window-y="-8"
     inkscape:window-maximized="1" />
  <metadata
     id="metadata5">
    <rdf:RDF>
      <cc:Work
         rdf:about="">
        <dc:format>image/svg+xml</dc:format>
        <dc:type
           rdf:resource="http://purl.org/dc/dcmitype/StillImage" />
        <dc:title></dc:title>
      </cc:Work>
    </rdf:RDF>
  </metadata>
  <g
     inkscape:label="Ebene 1"
     inkscape:groupmode="layer"
     id="layer1">
    <g
       style="enable-background:new"
       id="g4580"
       transform="translate(-7.4004955,40.14899)">
      <g
         id="layer1-2"
         inkscape:label="Ebene 1">
        <g
           transform="matrix(0.51761871,0,0,0.51761871,58.725239,55.668853)"
           id="g851">
          <g
             transform="translate(-7.2288217,-8.2615106)"
             id="g860">
            <g
               transform="translate(4.558509,61.252603)"
               id="g867">
              <g
                 id="g4712">
                <circle
                   style="fill:#52aaff;fill-opacity:1;fill-rule:nonzero;stroke:none;stroke-width:1.28472948;stroke-miterlimit:4;stroke-dasharray:none;stroke-opacity:1"
                   id="path815"
                   cx="90.103516"
                   cy="-4.626431"
                   r="96.596199" />
                <g
                   style="fill:#ffffff;fill-opacity:1"
                   transform="matrix(3.7266754,0,0,3.7266754,45.249573,-3881.8595)"
                   id="g4695">
                  <g
                     style="fill:#ffffff;fill-opacity:1"
                     id="g4693">
                    <path
                       style="fill:#ffffff;fill-opacity:1"
                       inkscape:connector-curvature="0"
                       d="m 20.751,1032.1 c -0.123,-0.3 -0.49,-0.4 -1.22,-0.4 -1.274,0.1 -3.533,4.6 -3.42,1.8 -1.928,-1.1 -0.173,3.2 -2.238,3.6 -1.302,1.4 -0.701,-0.9 -0.836,-1.6 -0.21,-1 0.262,-1.7 1.003,-2.2 l 2.061,-2.1 c -1.033,-2.7 -3.586,3 -2.971,-0.3 0.49,-1 -0.321,-2.4 -1.087,-2.5 h 0.012 c -0.202,0 -0.394,0.1 -0.576,0.3 -0.165,0.1 -0.322,0.3 -0.433,0.6 h -0.012 c -0.056,0.1 -0.114,0.3 -0.148,0.4 h -0.011 c -0.025,0.1 -0.058,0.2 -0.066,0.4 h 0.016 c -0.006,0.1 -0.012,0.2 0.01,0.4 h 0.016 c 0.024,0.1 0.051,0.3 0.107,0.4 h 0.016 c 0.071,0.4 0.091,0.7 0.079,0.8 -0.001,0 0.016,0.1 0.015,0.1 -0.007,0 -0.039,0.1 -0.062,0.1 -0.025,0 -0.067,0.1 -0.109,0.1 -0.043,0 -0.089,-0.1 -0.146,-0.1 -0.171,-0.1 -0.387,-0.4 -0.647,-0.6 -0.3388,-0.3 -0.7419,-0.7 -1.1107,-0.8 -0.1957,0 -0.3753,0 -0.5496,0.1 -0.0838,0 -0.1514,0.1 -0.2267,0.2 -0.0826,0.1 -0.1598,0.3 -0.2298,0.4 l 2.0508,2.1 c 0.371,0.2 0.674,0.6 0.853,0.9 0.044,0.1 0.087,0.2 0.115,0.3 0.029,0.1 0.048,0.2 0.06,0.3 0.028,0.2 0.011,0.4 -0.044,0.7 -0.034,0.1 -0.015,0.4 0.004,0.7 0.009,0.2 -0.01,0.3 -0.002,0.4 0.006,0.2 0.032,0.4 0.025,0.5 -0.005,0.1 -0.007,0.2 -0.038,0.3 -0.045,0.1 -0.135,0.1 -0.262,0.1 -0.123,0 -0.305,-0.2 -0.536,-0.4 h -0.016 c -0.248,-0.1 -0.4482,-0.2 -0.5984,-0.3 -0.0767,-0.1 -0.1293,-0.2 -0.1857,-0.3 -0.0602,-0.1 -0.1223,-0.2 -0.1625,-0.3 -0.0738,-0.2 -0.1099,-0.5 -0.1406,-0.7 H 9.094 c -0.0144,-0.2 -0.0122,-0.3 -0.0212,-0.4 -0.0098,-0.1 -0.0023,-0.2 -0.0096,-0.4 -0.007,-0.1 -0.0128,-0.2 -0.0212,-0.3 -0.0085,-0.1 -0.0347,-0.3 -0.0486,-0.4 -0.0065,0 -0.0276,0 -0.036,-0.1 -0.0934,-0.5 -0.3118,-0.8 -0.9758,-0.4 h 0.0159 c 0.0055,0.2 -0.0079,0.3 -0.0178,0.4 -6e-4,0 0.0164,0 0.0158,0.1 -0.0111,0.1 -0.045,0.1 -0.0695,0.2 -0.0268,0.1 -0.0485,0.1 -0.0897,0.2 H 7.6834 c -0.1079,0 -0.2485,-0.1 -0.3977,-0.2 -0.4423,-0.4 -1.033,-1.2 -1.6102,-1.8 -0.3883,-0.4 -0.7751,-0.7 -1.0951,-0.7 -0.0067,0 -0.0092,-0.1 -0.0159,-0.1 -0.7482,0 -1.09,0.2 -1.2033,0.5 -0.0309,0.1 -0.056,0.2 -0.058,0.3 -0.0017,0 0.0209,0.1 0.0444,0.2 0.044,0.2 0.1339,0.4 0.266,0.7 0.2471,0.4 0.6241,0.8 1.0109,1.2 0.3954,0.4 0.798,0.7 1.1036,0.9 0.4277,0.3 0.6254,0.5 0.6468,0.6 0.0056,0 -0.0107,0.1 -0.0232,0.1 -0.114,0.2 -0.8859,0.1 -1.2709,0.3 -0.0853,0.1 -0.1492,0.2 -0.1834,0.3 0.0324,0.1 0.077,0.1 0.1266,0.2 0.1491,0.2 0.3546,0.3 0.6182,0.4 0.5283,0.1 1.227,0 1.8544,0.1 0.2058,0.1 0.398,0.1 0.5781,0.2 0.2702,0.1 0.5007,0.3 0.6626,0.6 0.054,0.2 0.0977,0.3 0.1352,0.4 0.2038,0.1 0.3496,0.2 0.4452,0.3 0.0956,0.1 0.1348,0.2 0.1425,0.3 H 9.4486 c -0.0149,0 -0.0242,0 -0.0549,0.1 -0.3061,0.1 -1.3457,-0.1 -1.8142,0 -0.3788,0.1 -0.7288,0.1 -1.0485,0 -0.3196,-0.1 -0.6141,-0.2 -0.8893,-0.4 -0.1297,-0.1 -0.2638,-0.2 -0.3861,-0.3 -0.1292,-0.1 -0.2677,-0.2 -0.3904,-0.3 -0.2385,-0.3 -0.475,-0.6 -0.6985,-0.8 -0.0316,-0.1 -0.0561,-0.2 -0.1035,-0.3 -0.0501,-0.1 -0.1208,-0.2 -0.1857,-0.3 -0.0547,0 -0.1196,-0.1 -0.1815,-0.2 -0.0689,0 -0.1458,0 -0.2205,-0.1 H 3.2318 c -0.2285,-0.1 -0.4694,0 -0.6634,0 -0.1447,0.1 -0.2399,0.2 -0.3248,0.3 -0.0424,0 -0.0801,0.1 -0.1055,0.1 -0.0248,0.1 -0.0417,0.1 -0.0463,0.2 h 0.0158 c -0.0011,0.1 0.0083,0.1 0.0243,0.2 0.043,0.2 0.1778,0.5 0.5255,0.7 0.5853,0.3 0.8616,0.6 0.9264,0.8 0.0162,0 0.0014,0.1 -0.0073,0.1 -0.011,0 5e-4,0.1 -0.0232,0.1 H 3.5259 c -0.1326,0.1 -0.3912,0.2 -0.7257,0.2 H 2.7728 2.2349 2.2074 1.0957 c -0.3097,0 -0.53565,0.1 -0.70561,0.3 H 0.33525 c -0.13882,0.1 -0.23114,0.2 -0.2773,0.3 -0.005109,0 -0.007255,0.1 -0.011588,0.1 -0.016489,0 -0.046,0.1 -0.046356,0.1 -3.7193e-4,0 0.015841,0.1 0.015831,0.1 0.00236,0 0.02076,0.1 0.040145,0.2 0.077328,0.3 0.33768,0.5 0.68693,0.8 0.17292,0.1 0.35029,0.2 0.55489,0.2 0.4175,0.2 0.8726,0.2 1.2879,0 0.7878,-0.2 1.0665,-0.1 1.0801,0 -0.011,0.1 -0.0827,0.2 -0.2066,0.3 -0.1307,0.2 -0.3029,0.4 -0.4808,0.5 -0.1594,0.2 -0.3289,0.4 -0.465,0.6 h -0.0116 c -0.1383,0.2 -0.263,0.4 -0.3078,0.5 -0.0207,0.1 -0.0358,0.2 -0.0263,0.3 h 0.0158 c 0.0019,0.1 0.0133,0.1 0.0158,0.1 0.0432,0.2 0.2321,0.5 0.7217,0.6 l 2.0605,-2 c 0.0083,0 0.0032,0 0.0115,-0.1 0.1385,-0.1 0.2693,-0.3 0.426,-0.4 0.4698,-0.4 1.0347,-0.6 1.7456,-0.5 0.5365,0.1 1.7368,-0.2 2.0305,0.1 h 0.0475 c 0.004,0.1 0.0138,0.1 0.0158,0.1 8e-4,0 -0.012,0 -0.0232,0.1 -0.0437,0.1 -0.1799,0.3 -0.4491,0.5 h 0.0158 c -0.0218,0.2 -0.0613,0.3 -0.1086,0.3 -0.6165,1.3 -3.2287,0.5 -3.6038,1.2 -0.024,0 -0.0577,0.1 -0.0622,0.2 h 0.0158 c -0.0015,0 -0.0138,0.1 0.0127,0.2 0.0264,0.1 0.0777,0.2 0.1468,0.3 h 0.0158 c 0.3539,0 0.5796,0 0.7268,0.1 0.1259,0 0.2104,0.1 0.1973,0.2 -0.0779,0.6 -2.2764,1.9 -2.7205,2.9 -0.0367,0 -0.0749,0.1 -0.0853,0.2 h 0.0158 c -0.0013,0.2 -0.0056,0.4 0.0139,0.5 h 0.0158 c 0.0205,0.1 0.0383,0.2 0.076,0.3 0.0034,0 0.0124,0.1 0.0159,0.1 0.0819,0.1 0.2066,0.3 0.3471,0.3 0.8793,0.4 2.7715,-1.4 3.3198,-2.3 0.3514,-0.5 0.5468,-0.7 0.6569,-0.7 0.0421,0.1 0.0728,0.1 0.095,0.2 h 0.0158 c 0.0226,0.1 0.0326,0.2 0.0486,0.4 0.0426,0.3 0.1058,0.7 0.3104,0.9 h 0.1456 c 0.1193,0.1 0.2582,0.1 0.463,0 2e-4,-0.1 0.0115,-0.1 0.0116,-0.1 0.0018,-0.2 -0.0084,-0.4 0.0051,-0.6 0.001,0 0.0105,0 0.0116,-0.1 0.0145,-0.2 0.0461,-0.4 0.0757,-0.6 h 0.0116 c 0.0317,-0.2 0.0677,-0.4 0.119,-0.6 0.0539,-0.2 0.1107,-0.5 0.1897,-0.6 0.1352,-0.4 0.3291,-0.7 0.5535,-1 0.0436,0 0.0695,-0.1 0.117,-0.2 0.1409,-0.1 0.2749,-0.3 0.4529,-0.4 0.178,-0.2 0.381,-0.3 0.599,-0.5 l -0.004,3.5 c -0.427,0.7 -1.2623,1.3 -1.8523,2 -0.2386,0.1 -0.4074,0.2 -0.5442,0.4 -0.054,0 -0.1206,0.1 -0.1602,0.1 -0.0075,0 -0.0046,0 -0.0116,0.1 -0.0438,0 -0.0764,0.1 -0.1012,0.2 h -0.0116 c -0.0327,0.1 -0.073,0.2 -0.0653,0.3 0.0066,0.2 0.055,0.3 0.1235,0.4 0.097,0.2 0.2515,0.3 0.4294,0.3 0.0692,0.1 0.1219,0.1 0.2004,0.1 0.14,0 0.2982,-0.1 0.4588,-0.2 0.1607,-0.1 0.3266,-0.2 0.4967,-0.5 0.1346,-0.1 0.2536,-0.3 0.3556,-0.4 0.203,-0.2 0.361,-0.3 0.462,-0.4 0.036,0 0.077,0.1 0.102,0.1 0.062,0.1 0.086,0.2 0.096,0.4 0.01,0.2 0.021,0.5 0.015,0.7 -0.007,0.3 -0.031,0.6 -0.02,0.9 h 0.016 c 0.012,0.3 0.029,0.5 0.09,0.8 0.061,0.2 0.176,0.4 0.321,0.6 0.075,0.1 0.148,0.1 0.252,0.2 0.11,0 0.224,0.1 0.373,0.1 2.182,0 -0.082,-5.8 2.065,-3 1.36,1.7 2.594,-0.5 0.819,-1.2 -0.59,-0.7 -1.451,-1.2 -1.878,-2 l -0.012,-3.4 c 1.75,1 2.15,2.7 2.165,4.6 1.518,0.7 0.334,-2.8 1.74,-0.8 0.725,1.2 3.859,4 3.815,1.1 -0.183,-1.2 -4.696,-3.5 -1.865,-3.4 1.134,-1.9 -3.239,-0.1 -3.58,-2.2 -1.436,-1.3 0.813,-0.6 1.611,-0.8 0.947,-0.2 1.618,0.3 2.172,1 l 2.067,2 c 2.718,-1 -3.002,-3.5 0.359,-2.9 1.627,0.7 3.941,-1.6 1.464,-2.1 -1.313,0.1 -3.917,0.1 -1.576,-1.2 1.739,-1.3 -0.978,-2.4 -1.484,-0.6 -0.92,1 -1.893,2.2 -3.408,1.8 -0.75,-0.1 -2.949,0.4 -1.319,-0.7 0.6,-2.1 3.478,-0.5 3.997,-1.9 -0.274,-0.8 -2.553,0 -0.842,-1.3 0.917,-0.5 2.764,-2.4 2.397,-3.3 z"
                       id="path4691" />
                  </g>
                </g>
              </g>
            </g>
          </g>
        </g>
      </g>
    </g>
  </g>
</svg>
