<?xml version="1.0" encoding="UTF-8" standalone="no"?>
<!-- Created with Inkscape (http://www.inkscape.org/) -->

<svg
   xmlns:dc="http://purl.org/dc/elements/1.1/"
   xmlns:cc="http://creativecommons.org/ns#"
   xmlns:rdf="http://www.w3.org/1999/02/22-rdf-syntax-ns#"
   xmlns:svg="http://www.w3.org/2000/svg"
   xmlns="http://www.w3.org/2000/svg"
   xmlns:sodipodi="http://sodipodi.sourceforge.net/DTD/sodipodi-0.dtd"
   xmlns:inkscape="http://www.inkscape.org/namespaces/inkscape"
   width="33.99577mm"
   height="18.872782mm"
   viewBox="0 0 33.99577 18.872781"
   version="1.1"
   id="svg8"
   inkscape:version="0.92.3 (2405546, 2018-03-11)"
   sodipodi:docname="arcade.svg">
  <defs
     id="defs2" />
  <sodipodi:namedview
     id="base"
     pagecolor="#ffffff"
     bordercolor="#666666"
     borderopacity="1.0"
     inkscape:pageopacity="0.0"
     inkscape:pageshadow="2"
     inkscape:zoom="3.959798"
     inkscape:cx="-16.768055"
     inkscape:cy="30.269196"
     inkscape:document-units="mm"
     inkscape:current-layer="g4668"
     showgrid="false"
     inkscape:window-width="1920"
     inkscape:window-height="1017"
     inkscape:window-x="-8"
     inkscape:window-y="-8"
     inkscape:window-maximized="1"
     fit-margin-top="0"
     fit-margin-left="0"
     fit-margin-right="0"
     fit-margin-bottom="0" />
  <metadata
     id="metadata5">
    <rdf:RDF>
      <cc:Work
         rdf:about="">
        <dc:format>image/svg+xml</dc:format>
        <dc:type
           rdf:resource="http://purl.org/dc/dcmitype/StillImage" />
        <dc:title></dc:title>
      </cc:Work>
    </rdf:RDF>
  </metadata>
  <g
     inkscape:label="Ebene 1"
     inkscape:groupmode="layer"
     id="layer1"
     transform="translate(-81.826161,-46.156742)">
    <g
       id="g4650">
      <g
         id="g4659">
        <g
           id="g4668">
          <path
             style="fill:none;fill-rule:nonzero;stroke-width:0.16898058"
             inkscape:connector-curvature="0"
             d="m 106.75517,46.344155 -2.05366,3.497121 3.49712,2.053656 2.05366,-3.497121 z m 1.9823,4.299501 c -0.0941,0.160285 -0.30228,0.214415 -0.46256,0.120289 l -2.62284,-1.540242 c -0.16029,-0.09413 -0.21442,-0.302281 -0.12029,-0.462565 l 0.68455,-1.165707 c 0.0941,-0.160285 0.30228,-0.214415 0.46257,-0.120289 l 2.62284,1.540242 c 0.16028,0.09413 0.21441,0.30228 0.12029,0.462565 z"
             id="path4729" />
          <path
             style="fill:#ffffff;fill-opacity:1;fill-rule:nonzero;stroke-width:1.54832029"
             inkscape:connector-curvature="0"
             d="M 112.76245,46.363666 85.022479,46.15683 c -1.695288,-0.01285 -3.092497,1.376927 -3.105029,3.088004 l -0.0912,12.44383 c -0.01285,1.710903 1.364194,3.121315 3.059457,3.133935 l 27.739973,0.206836 c 1.69521,0.01285 3.0925,-1.376927 3.10496,-3.087959 l 0.0912,-12.443875 c 0.0129,-1.710912 -1.36419,-3.121314 -3.05945,-3.133935 z m -15.490811,10.773475 -4.62333,-0.03406 -0.03372,4.666447 -3.082168,-0.02308 0.03375,-4.666404 -4.62333,-0.03406 0.02285,-3.110969 4.62333,0.03406 0.03375,-4.666457 3.082175,0.02309 -0.03375,4.666414 4.62333,0.03406 z m 6.912201,3.162675 c -1.27909,-0.0093 -2.30404,-1.059403 -2.29445,-2.350535 0.009,-1.290946 1.04961,-2.325515 2.32869,-2.315995 1.27909,0.0093 2.30404,1.059396 2.29446,2.350535 -0.009,1.290946 -1.0497,2.32555 -2.32878,2.316043 z m 6.19861,-4.620448 c -1.2791,-0.0093 -2.30404,-1.059396 -2.29446,-2.350537 0.009,-1.290935 1.04961,-2.325506 2.3287,-2.315986 1.27909,0.0093 2.30404,1.059395 2.29445,2.350525 -0.009,1.290946 -1.04968,2.325562 -2.32878,2.316043 z"
             id="path4731"
             inkscape:export-xdpi="76"
             inkscape:export-ydpi="76" />
        </g>
      </g>
    </g>
  </g>
</svg>
