<?xml version="1.0" encoding="UTF-8" standalone="no"?>
<!-- Created with Inkscape (http://www.inkscape.org/) -->

<svg
   xmlns:dc="http://purl.org/dc/elements/1.1/"
   xmlns:cc="http://creativecommons.org/ns#"
   xmlns:rdf="http://www.w3.org/1999/02/22-rdf-syntax-ns#"
   xmlns:svg="http://www.w3.org/2000/svg"
   xmlns="http://www.w3.org/2000/svg"
   xmlns:sodipodi="http://sodipodi.sourceforge.net/DTD/sodipodi-0.dtd"
   xmlns:inkscape="http://www.inkscape.org/namespaces/inkscape"
   width="136.46602mm"
   height="122.39142mm"
   viewBox="0 0 136.46602 122.39142"
   version="1.1"
   id="svg8"
   inkscape:version="0.92.3 (2405546, 2018-03-11)"
   sodipodi:docname="skull_crossbones.svg">
  <defs
     id="defs2" />
  <sodipodi:namedview
     id="base"
     pagecolor="#ffffff"
     bordercolor="#666666"
     borderopacity="1.0"
     inkscape:pageopacity="0.0"
     inkscape:pageshadow="2"
     inkscape:zoom="0.7"
     inkscape:cx="677.69769"
     inkscape:cy="187.89764"
     inkscape:document-units="mm"
     inkscape:current-layer="layer1"
     showgrid="false"
     fit-margin-top="0"
     fit-margin-left="0"
     fit-margin-right="0"
     fit-margin-bottom="0"
     inkscape:window-width="1920"
     inkscape:window-height="1017"
     inkscape:window-x="-8"
     inkscape:window-y="-8"
     inkscape:window-maximized="1" />
  <metadata
     id="metadata5">
    <rdf:RDF>
      <cc:Work
         rdf:about="">
        <dc:format>image/svg+xml</dc:format>
        <dc:type
           rdf:resource="http://purl.org/dc/dcmitype/StillImage" />
        <dc:title></dc:title>
      </cc:Work>
    </rdf:RDF>
  </metadata>
  <g
     inkscape:label="Ebene 1"
     inkscape:groupmode="layer"
     id="layer1"
     transform="translate(-44.707751,-93.72168)">
    <g
       id="g932">
      <path
         sodipodi:nodetypes="csssssssc"
         inkscape:connector-curvature="0"
         id="path826"
         d="m 89.80256,103.76413 c -25.035872,13.09707 -16.124082,58.71138 -1.336348,73.49912 5.253064,5.25306 1.868691,25.12114 7.216277,30.46872 6.146711,6.14672 28.274521,9.67776 37.150461,1e-5 8.51061,-9.27941 2.60192,-27.19072 5.87993,-30.46873 16.88536,-16.88536 16.53816,-41.73168 7.08546,-60.0764 -2.55286,-4.95431 -5.46071,-9.77169 -9.49088,-13.15545 -8.3317,-6.995358 -20.89554,-5.367139 -30.7,-4.433061 -8.13375,0.774911 -12.365453,3.428761 -15.8049,4.165791 z"
         style="fill:#ffffff;fill-opacity:1;stroke:none;stroke-width:0.26458332px;stroke-linecap:butt;stroke-linejoin:miter;stroke-opacity:1" />
      <path
         sodipodi:nodetypes="ccccccc"
         inkscape:connector-curvature="0"
         id="path840"
         d="m 50.40784,103.95082 c 0,0 2.13815,-21.114296 14.43255,-2.6727 0,0 1.87089,5.61266 9.08717,10.42351 0,0 -5.34539,12.2944 -3.74178,14.43256 L 59.495,120.7888 c 0,0 -12.02713,1.60361 -14.43255,-5.34539 0,0 -2.412377,-5.41163 5.34539,-11.49259 z"
         style="fill:#ffffff;fill-opacity:1;stroke:none;stroke-width:0.26458332px;stroke-linecap:butt;stroke-linejoin:miter;stroke-opacity:1" />
      <path
         style="fill:#ffffff;fill-opacity:1;stroke:none;stroke-width:0.26458332px;stroke-linecap:butt;stroke-linejoin:miter;stroke-opacity:1"
         d="m 174.85077,105.8407 c 0,0 -2.13815,-21.114295 -14.43255,-2.6727 0,0 -1.87089,5.61266 -9.08717,10.42351 0,0 5.34539,12.2944 3.74178,14.43256 l 10.69078,-5.34539 c 0,0 12.02713,1.60361 14.43255,-5.34539 0,0 2.41238,-5.41163 -5.34539,-11.49259 z"
         id="path842"
         inkscape:connector-curvature="0"
         sodipodi:nodetypes="ccccccc" />
      <path
         sodipodi:nodetypes="ccccccccc"
         inkscape:connector-curvature="0"
         id="path844"
         d="m 68.413686,188.52084 c 0,0 -12.09524,-5.66965 -21.16666,3.0238 0,0 -2.802399,7.11671 10.917417,12.82433 0,0 -0.67407,10.61217 11.761153,11.74413 0,0 8.31548,-3.77976 8.69345,-15.49702 0,0 0.757925,-2.62291 8.317445,-8.29256 0,0 -0.04193,-1.53482 -0.757915,-7.96042 0,0 -0.07076,-3.85445 -3.936329,-5.64672 z"
         style="fill:#ffffff;fill-opacity:1;stroke:none;stroke-width:0.26458332px;stroke-linecap:butt;stroke-linejoin:miter;stroke-opacity:1" />
      <path
         style="fill:#ffffff;fill-opacity:1;stroke:none;stroke-width:0.26458332px;stroke-linecap:butt;stroke-linejoin:miter;stroke-opacity:1"
         d="m 159.77137,188.14286 c 0,0 12.09524,-5.66965 21.16666,3.0238 0,0 2.80239,7.11671 -10.91742,12.82433 0,0 0.67407,10.61217 -11.76115,11.74413 0,0 -8.31548,-3.77976 -8.69345,-15.49702 0,0 -0.75793,-2.62291 -8.31745,-8.29256 0,0 0.0419,-1.53482 0.75792,-7.96042 0,0 0.0708,-3.85445 3.93632,-5.64672 z"
         id="path846"
         inkscape:connector-curvature="0"
         sodipodi:nodetypes="ccccccccc" />
      <g
         transform="translate(1.7873558)"
         id="g908">
        <path
           style="fill:#000000;fill-opacity:1;stroke:#000000;stroke-width:0.26458332px;stroke-linecap:butt;stroke-linejoin:miter;stroke-opacity:1"
           d="m 87.129872,133.96558 c -2.59535,44.10468 38.330268,-2.13816 16.570698,-2.13816 -7.307848,0 -10.270388,-1.012 -16.570698,2.13816 z"
           id="path848"
           inkscape:connector-curvature="0" />
        <path
           inkscape:connector-curvature="0"
           id="path850"
           d="m 137.77625,133.96558 c 2.59535,44.10468 -38.330265,-2.13816 -16.5707,-2.13816 7.30785,0 10.27039,-1.012 16.5707,2.13816 z"
           style="fill:#000000;fill-opacity:1;stroke:#000000;stroke-width:0.26458332px;stroke-linecap:butt;stroke-linejoin:miter;stroke-opacity:1" />
      </g>
      <g
         transform="translate(0.12536051,3.1750001)"
         id="g904">
        <ellipse
           style="fill:#000000;fill-opacity:1;fill-rule:nonzero;stroke:#ffffff;stroke-width:0.18977593;stroke-opacity:1"
           id="path852"
           cx="116.7478"
           cy="178.90297"
           rx="2.071305"
           ry="6.9195313"
           transform="matrix(0.9981746,0.06039433,-0.05937992,0.99823546,0,0)" />
        <ellipse
           ry="8.0396624"
           rx="2.4270027"
           cy="186.58313"
           cx="110.68986"
           id="ellipse862"
           style="fill:#000000;fill-opacity:1;fill-rule:nonzero;stroke:#ffffff;stroke-width:0.22142914;stroke-opacity:1" />
        <ellipse
           style="fill:#000000;fill-opacity:1;fill-rule:nonzero;stroke:#ffffff;stroke-width:0.22142914;stroke-opacity:1"
           id="ellipse864"
           cx="126.74069"
           cy="179.65344"
           rx="2.4270027"
           ry="8.0396624"
           transform="rotate(3.4531305)" />
        <ellipse
           transform="rotate(-3.4862902)"
           ry="8.0396624"
           rx="2.4270027"
           cy="193.74883"
           cx="108.83399"
           id="ellipse866"
           style="fill:#000000;fill-opacity:1;fill-rule:nonzero;stroke:#ffffff;stroke-width:0.22142914;stroke-opacity:1" />
        <ellipse
           style="fill:#000000;fill-opacity:1;fill-rule:nonzero;stroke:#ffffff;stroke-width:0.17395952;stroke-opacity:1"
           id="ellipse868"
           cx="113.06656"
           cy="192.88025"
           rx="1.8937421"
           ry="6.3593702"
           transform="matrix(0.99809794,-0.0616482,0.05998253,0.99819943,0,0)" />
        <ellipse
           transform="matrix(0.99844846,-0.05568375,0.0664037,0.99779284,0,0)"
           ry="4.6773157"
           rx="1.5414108"
           cy="190.30873"
           cx="115.02382"
           id="ellipse870"
           style="fill:#000000;fill-opacity:1;fill-rule:nonzero;stroke:#ffffff;stroke-width:0.1345979;stroke-opacity:1" />
        <ellipse
           ry="4.8713789"
           rx="1.4320823"
           cy="181.14027"
           cx="96.178543"
           id="ellipse872"
           style="fill:#000000;fill-opacity:1;fill-rule:nonzero;stroke:#ffffff;stroke-width:0.13240083;stroke-opacity:1" />
        <ellipse
           style="fill:#000000;fill-opacity:1;fill-rule:nonzero;stroke:#ffffff;stroke-width:0.13240083;stroke-opacity:1"
           id="ellipse874"
           cx="99.067085"
           cy="182.2364"
           rx="1.4320823"
           ry="4.8713789" />
        <ellipse
           transform="matrix(0.99787498,0.06515766,-0.05931219,0.99823948,0,0)"
           ry="5.1446009"
           rx="1.6291994"
           cy="176.9361"
           cx="113.10087"
           id="ellipse876"
           style="fill:#000000;fill-opacity:1;fill-rule:nonzero;stroke:#ffffff;stroke-width:0.14512549;stroke-opacity:1" />
        <ellipse
           transform="matrix(0.99844846,-0.05568375,0.0664037,0.99779284,0,0)"
           ry="4.6773157"
           rx="1.5414108"
           cy="189.40141"
           cx="117.77197"
           id="ellipse880"
           style="fill:#000000;fill-opacity:1;fill-rule:nonzero;stroke:#ffffff;stroke-width:0.1345979;stroke-opacity:1" />
        <ellipse
           style="fill:#000000;fill-opacity:1;fill-rule:nonzero;stroke:#ffffff;stroke-width:0.1345979;stroke-opacity:1"
           id="ellipse882"
           cx="120.97527"
           cy="189.04984"
           rx="1.5414108"
           ry="4.6773157"
           transform="matrix(0.99844846,-0.05568375,0.0664037,0.99779284,0,0)" />
        <path
           style="fill:none;stroke:#ffffff;stroke-width:0.66500002;stroke-linecap:butt;stroke-linejoin:miter;stroke-miterlimit:4;stroke-dasharray:none;stroke-opacity:1"
           d="m 94.872005,179.07143 1.8899,1.88988 2.07885,1.5119 c 0,0 1.322915,1.70089 2.078885,2.07887 0.75594,0.37798 2.45684,2.64583 3.96875,2.26786 0,0 2.64583,1.88988 5.10268,0.94494 0,0 2.83482,1.13393 4.53571,0.18899 0,0 3.02381,1.13393 4.7247,0.18899 0,0 3.96875,0.18899 4.91369,-0.94494 0,0 4.15774,-1.32292 4.15774,-2.26786 0,0 2.26786,-0.94494 2.07887,-1.88988 0,0 1.70089,-1.13393 2.45685,-1.70089 l 2.64583,-2.07887"
           id="path886"
           inkscape:connector-curvature="0" />
      </g>
      <path
         inkscape:connector-curvature="0"
         id="path890"
         d="m 112.76397,155.7314 c 0,0 1.51191,-1.41742 2.74031,0 l 5.1027,11.1503 c 0,0 0.37797,1.5119 -1.6064,2.45684 0,0 -5.10268,1.88988 -10.01637,-0.37798 0,0 -1.22842,-0.94494 -1.13393,-1.60639 z"
         style="fill:#000000;fill-opacity:1;stroke:none;stroke-width:0.26458332px;stroke-linecap:butt;stroke-linejoin:miter;stroke-opacity:1" />
    </g>
  </g>
</svg>
